<svg xmlns="http://www.w3.org/2000/svg" viewBox="0 0 32 32">
  <rect width="32" height="32" rx="7" fill="#0d9488"/>
  <g transform="translate(4 4)" fill="none" stroke="#ffffff" stroke-width="1.8" stroke-linecap="round" stroke-linejoin="round">
    <path d="M14 15.5H16a2 2 0 0 0 2-2v-2.5a2 2 0 0 0-.4-1.2l-1.3-1.8a2 2 0 0 0-1.6-.8H8.9a2 2 0 0 0-1.6.8L6 9.6a2 2 0 0 0-.4 1.2V13.5a2 2 0 0 0 2 2H10"/>
    <circle cx="8" cy="15.5" r="1.8"/>
    <circle cx="16" cy="15.5" r="1.8"/>
    <path d="M6 11.5h12"/>
  </g>
</svg>
